<svg xmlns="http://www.w3.org/2000/svg" viewBox="0 0 256 256" role="img" aria-label="PolicyHire favicon">
  <rect width="256" height="256" rx="52" fill="#101925"/>
  <path fill="#174ea6" d="M56 72c0-13.3 10.7-24 24-24h96c13.3 0 24 10.7 24 24v112c0 13.3-10.7 24-24 24H80c-13.3 0-24-10.7-24-24V72Z"/>
  <path fill="#fff" d="M86 82h84v20h-58v22h52v20h-52v30H86V82Z"/>
  <path fill="#c88a1a" d="M176 114c-16 0-29 13-29 29s13 29 29 29 29-13 29-29-13-29-29-29Zm0 16 4.4 8.9 9.8 1.4-7.1 6.9 1.7 9.8-8.8-4.6-8.8 4.6 1.7-9.8-7.1-6.9 9.8-1.4L176 130Z"/>
</svg>
